<svg width="50" height="44" viewBox="0 0 50 44" fill="none" xmlns="http://www.w3.org/2000/svg">
<path d="M45.0001 43.9992C46.3261 43.9992 47.5979 43.4724 48.5356 42.5347C49.4732 41.5971 50 40.3253 50 38.9993V26.7895C50 25.4634 49.4732 24.1917 48.5356 23.254C47.5979 22.3164 46.3261 21.7896 45.0001 21.7896H38.0602C38.0602 20.033 38.1636 18.2763 38.3702 16.5197C38.6802 14.6597 39.1969 13.0064 39.9202 11.5598C40.6435 10.1131 41.5752 8.97482 42.7151 8.14483C43.8484 7.21485 45.2951 6.74986 47.0551 6.74986V-1C44.1618 -1 41.6285 -0.380011 39.4552 0.859966C37.2969 2.08432 35.4426 3.77969 34.0303 5.81987C32.6084 8.06558 31.5614 10.5277 30.9303 13.1097C30.2923 15.9584 29.9803 18.8704 30.0004 21.7896V38.9993C30.0004 40.3253 30.5271 41.5971 31.4648 42.5347C32.4025 43.4724 33.6742 43.9992 35.0003 43.9992H45.0001ZM15.0006 43.9992C16.3267 43.9992 17.5984 43.4724 18.5361 42.5347C19.4738 41.5971 20.0005 40.3253 20.0005 38.9993V26.7895C20.0005 25.4634 19.4738 24.1917 18.5361 23.254C17.5984 22.3164 16.3267 21.7896 15.0006 21.7896H8.06076C8.06076 20.033 8.16409 18.2763 8.37076 16.5197C8.68409 14.6597 9.20074 13.0064 9.92073 11.5598C10.6441 10.1131 11.5757 8.97482 12.7157 8.14483C13.849 7.21485 15.2956 6.74986 17.0556 6.74986V-1C14.1623 -1 11.629 -0.380011 9.45574 0.859966C7.29749 2.08432 5.44318 3.77969 4.03084 5.81987C2.60892 8.06558 1.56192 10.5277 0.930895 13.1097C0.292824 15.9584 -0.019176 18.8704 0.000911457 21.7896V38.9993C0.000911457 40.3253 0.527686 41.5971 1.46535 42.5347C2.40302 43.4724 3.67476 43.9992 5.00082 43.9992H15.0006Z" fill="#AD6493"/>
</svg>
