<svg width="41" height="26" viewBox="0 0 41 26" fill="none" xmlns="http://www.w3.org/2000/svg">
<path d="M11.8911 0.1875C13.098 0.1875 14.1841 0.291742 15.1799 0.504313C16.1697 0.71484 17.0139 1.06231 17.727 1.54264C18.4298 2.02297 18.979 2.66068 19.3745 3.46191C19.7577 4.25292 19.9482 5.24219 19.9482 6.41133C19.9482 7.67858 19.6614 8.73734 19.0856 9.58149C18.5057 10.4277 17.6512 11.1206 16.5119 11.6561C18.0631 12.1037 19.2126 12.8866 19.9749 13.9985C20.7413 15.1206 21.1163 16.4635 21.1163 18.0373C21.1163 19.3148 20.8724 20.4124 20.3827 21.3342C19.9107 22.2423 19.2261 23.0234 18.3868 23.6112C17.5175 24.215 16.5465 24.6581 15.5201 24.9193C14.4439 25.2011 13.3357 25.3426 12.223 25.3404H0V0.1875H11.8911ZM11.1718 10.35C12.1554 10.35 12.971 10.117 13.6144 9.64486C14.2537 9.17884 14.5631 8.41031 14.5631 7.35768C14.5631 6.77311 14.4586 6.29073 14.2537 5.9126C14.0541 5.54882 13.7586 5.24634 13.3992 5.03779C13.0231 4.81527 12.6079 4.66613 12.1759 4.59834C11.705 4.51074 11.2267 4.46899 10.7477 4.47366H5.55313V10.35H11.1718ZM11.4813 21.0583C12.0284 21.0583 12.5489 21.0113 13.0386 20.9009C13.5324 20.7946 13.9709 20.6229 14.3439 20.3674C14.7168 20.1221 15.0242 19.789 15.2455 19.3638C15.4689 18.9428 15.5775 18.393 15.5775 17.7328C15.5775 16.4369 15.2107 15.5151 14.4853 14.9571C13.7578 14.4052 12.7825 14.1313 11.5878 14.1313H5.55313V21.0603L11.4813 21.0583ZM29.032 20.9745C29.7841 21.7062 30.868 22.0741 32.2778 22.0741C33.2881 22.0741 34.161 21.8186 34.8966 21.3117C35.622 20.8028 36.0646 20.2591 36.2347 19.697H40.6506C39.9416 21.8881 38.8658 23.4538 37.3945 24.396C35.9417 25.3424 34.1733 25.8125 32.1078 25.8125C30.6693 25.8125 29.3742 25.5815 28.2144 25.1237C27.1012 24.6913 26.0952 24.0232 25.2657 23.1656C24.45 22.288 23.8193 21.2558 23.4113 20.1303C22.9627 18.8858 22.7407 17.5713 22.7556 16.2489C22.7556 14.8876 22.983 13.6142 23.4297 12.4389C23.8538 11.3029 24.5049 10.2646 25.3436 9.38732C26.1735 8.52886 27.1571 7.85231 28.3025 7.35563C29.5071 6.85032 30.8032 6.59843 32.1098 6.61572C33.6549 6.61572 35.0052 6.91414 36.165 7.51506C37.2898 8.08869 38.265 8.91588 39.0133 9.93101C39.7572 10.9387 40.2879 12.0935 40.6178 13.3873C40.9477 14.6791 41.0625 16.0281 40.9682 17.4405H27.7903C27.7923 18.8794 28.2779 20.2427 29.032 20.9745ZM34.7942 11.4067C34.1979 10.7486 33.1897 10.3929 31.9561 10.3929C31.1549 10.3929 30.4931 10.5258 29.9603 10.7997C29.4731 11.0451 29.0409 11.3865 28.6898 11.8033C28.3814 12.1816 28.1528 12.6182 28.0177 13.0869C27.8995 13.4776 27.8233 13.8798 27.7903 14.2867H35.9499C35.831 13.0112 35.3925 12.069 34.7942 11.4067ZM26.7657 1.8758H36.9888V4.3592H26.7657V1.8758Z" fill="white"/>
</svg>
