<svg width="20" height="20" viewBox="0 0 20 20" fill="none" xmlns="http://www.w3.org/2000/svg">
<path d="M4.08994 16.9999H16.0899L14.7899 18.2899C14.6016 18.4782 14.4958 18.7336 14.4958 18.9999C14.4958 19.2662 14.6016 19.5216 14.7899 19.7099C14.9782 19.8982 15.2336 20.004 15.4999 20.004C15.7662 20.004 16.0216 19.8982 16.2099 19.7099L19.2099 16.7099C19.3037 16.617 19.3781 16.5064 19.4288 16.3845C19.4796 16.2627 19.5057 16.132 19.5057 15.9999C19.5057 15.8679 19.4796 15.7372 19.4288 15.6154C19.3781 15.4935 19.3037 15.3829 19.2099 15.2899L16.2099 12.2899C16.117 12.1962 16.0064 12.1218 15.8845 12.071C15.7627 12.0203 15.632 11.9941 15.4999 11.9941C15.3679 11.9941 15.2372 12.0203 15.1154 12.071C14.9935 12.1218 14.8829 12.1962 14.7899 12.2899C14.6962 12.3829 14.6218 12.4935 14.571 12.6154C14.5203 12.7372 14.4941 12.8679 14.4941 12.9999C14.4941 13.132 14.5203 13.2627 14.571 13.3845C14.6218 13.5064 14.6962 13.617 14.7899 13.7099L16.0899 14.9999H4.08994C3.88507 15.0039 3.68142 14.9675 3.49063 14.8927C3.29983 14.818 3.12564 14.7064 2.97798 14.5643C2.83033 14.4222 2.71212 14.2525 2.63009 14.0647C2.54807 13.8769 2.50384 13.6748 2.49994 13.4699V10.9999C2.49994 10.7347 2.39458 10.4804 2.20705 10.2928C2.01951 10.1053 1.76516 9.99994 1.49994 9.99994C1.23472 9.99994 0.980368 10.1053 0.792832 10.2928C0.605296 10.4804 0.499939 10.7347 0.499939 10.9999V13.4699C0.503862 13.9374 0.599834 14.3996 0.782375 14.83C0.964915 15.2604 1.23045 15.6507 1.56382 15.9785C1.89718 16.3063 2.29185 16.5652 2.72528 16.7405C3.15872 16.9157 3.62243 17.0039 4.08994 16.9999ZM3.78994 7.70994C3.97824 7.89824 4.23364 8.00403 4.49994 8.00403C4.76624 8.00403 5.02164 7.89824 5.20994 7.70994C5.39824 7.52164 5.50403 7.26624 5.50403 6.99994C5.50403 6.73364 5.39824 6.47824 5.20994 6.28994L3.90994 4.99994H15.9099C16.1148 4.99596 16.3185 5.03238 16.5093 5.10713C16.7 5.18187 16.8742 5.29347 17.0219 5.43555C17.1695 5.57763 17.2878 5.74741 17.3698 5.93519C17.4518 6.12297 17.496 6.32507 17.4999 6.52994V8.99994C17.4999 9.26516 17.6053 9.51951 17.7928 9.70705C17.9804 9.89458 18.2347 9.99994 18.4999 9.99994C18.7652 9.99994 19.0195 9.89458 19.207 9.70705C19.3946 9.51951 19.4999 9.26516 19.4999 8.99994V6.52994C19.496 6.06243 19.4 5.60027 19.2175 5.16985C19.035 4.73943 18.7694 4.34918 18.4361 4.02139C18.1027 3.69359 17.708 3.43467 17.2746 3.25941C16.8412 3.08415 16.3774 2.99598 15.9099 2.99994H3.90994L5.20994 1.70994C5.30367 1.61698 5.37806 1.50637 5.42883 1.38452C5.4796 1.26266 5.50574 1.13195 5.50574 0.999939C5.50574 0.867927 5.4796 0.737222 5.42883 0.615362C5.37806 0.493503 5.30367 0.382902 5.20994 0.289939C5.11698 0.196211 5.00637 0.121816 4.88452 0.0710475C4.76266 0.0202789 4.63195 -0.00585938 4.49994 -0.00585938C4.36793 -0.00585938 4.23722 0.0202789 4.11536 0.0710475C3.9935 0.121816 3.8829 0.196211 3.78994 0.289939L0.789939 3.28994C0.696211 3.3829 0.621816 3.4935 0.571048 3.61536C0.520279 3.73722 0.494141 3.86793 0.494141 3.99994C0.494141 4.13195 0.520279 4.26266 0.571048 4.38452C0.621816 4.50637 0.696211 4.61698 0.789939 4.70994L3.78994 7.70994Z" fill="black"/>
</svg>
