<svg width="32" height="32" viewBox="0 0 32 32" fill="none" xmlns="http://www.w3.org/2000/svg">
<path fill-rule="evenodd" clip-rule="evenodd" d="M29.3067 2.68274C30.1124 3.48686 30.741 4.45009 31.1524 5.51076C31.6267 6.76913 31.8798 8.09984 31.9005 9.44422C32 11.1422 32 11.6922 32 16.0266C32 20.3611 31.9769 20.9022 31.9005 22.609C31.8738 23.9361 31.6233 25.2455 31.1559 26.4875C30.744 27.548 30.1152 28.5112 29.3096 29.3155C28.504 30.1199 27.5393 30.7477 26.4771 31.159C25.2336 31.6241 23.9202 31.8755 22.5926 31.9024C20.8956 32 20.3394 32 16 32C11.6606 32 11.1186 31.9769 9.40737 31.9024C8.07707 31.8587 6.76399 31.5887 5.52466 31.104C4.46213 30.6934 3.49707 30.066 2.69113 29.262C1.8852 28.4579 1.25611 27.4948 0.844069 26.4342C0.376721 25.1905 0.126166 23.8811 0.0995113 22.554C0 20.8561 0 20.3043 0 15.9716C0 11.6372 0.0231008 11.096 0.0995113 9.38922C0.125481 8.06358 0.377263 6.75203 0.844069 5.51076C1.25496 4.44981 1.88344 3.48634 2.68918 2.68215C3.49492 1.87797 4.46013 1.25083 5.52288 0.840985C6.76456 0.373655 8.0771 0.121635 9.40382 0.0958082C11.1008 0 11.657 0 15.9964 0C20.3358 0 20.8778 0.0212906 22.5891 0.0958082C23.9168 0.123027 25.2303 0.374996 26.4736 0.840985C27.536 1.25131 28.501 1.87862 29.3067 2.68274ZM28.4354 25.4176C28.7896 24.4582 28.9765 23.4452 28.988 22.4227V22.4245H29.0076C29.084 20.7283 29.084 20.2635 29.084 15.9415C29.084 11.6177 29.0644 11.1439 28.988 9.45664C28.9715 8.44562 28.7846 7.44458 28.4354 6.49545C28.1683 5.80541 27.7598 5.17872 27.2358 4.65563C26.7119 4.13254 26.0843 3.72459 25.3932 3.45797C24.4431 3.10503 23.4392 2.91836 22.4256 2.90619C20.7072 2.80861 20.263 2.8086 15.9325 2.8086C11.602 2.8086 11.1275 2.8299 9.43758 2.90619C8.42475 2.92032 7.42175 3.10692 6.47179 3.45797C5.06975 3.99379 3.95913 5.09559 3.41715 6.49545C3.06291 7.45428 2.87599 8.46666 2.8645 9.48858C2.77032 11.2078 2.77032 11.6496 2.77032 15.9734C2.77032 20.2954 2.78809 20.7709 2.8645 22.4564C2.88105 23.4674 3.06787 24.4685 3.41715 25.4176C3.68518 26.1089 4.09556 26.7363 4.62175 27.2592C5.14794 27.7821 5.77821 28.1889 6.47179 28.4533C7.42128 28.8061 8.42457 28.9927 9.43758 29.0051C11.1577 29.1027 11.6002 29.1027 15.9325 29.1027C20.2612 29.1027 20.7374 29.0832 22.4256 29.0051C23.4391 28.992 24.4429 28.8054 25.3932 28.4533C26.0843 28.1873 26.7121 27.7797 27.236 27.2569C27.76 26.7341 28.1685 26.1076 28.4354 25.4176ZM24.5304 9.36868C25.5888 9.36868 26.4468 8.51237 26.4468 7.45606C26.4468 6.39975 25.5888 5.54344 24.5304 5.54344C23.4719 5.54344 22.6139 6.39975 22.6139 7.45606C22.6139 8.51237 23.4719 9.36868 24.5304 9.36868ZM15.9875 7.757C13.8083 7.757 11.7183 8.62135 10.1774 10.1599C8.63642 11.6985 7.77072 13.7852 7.77072 15.961C7.77072 18.1369 8.63642 20.2236 10.1774 21.7622C11.7183 23.3007 13.8083 24.1651 15.9875 24.1651C18.1667 24.1651 20.2567 23.3007 21.7977 21.7622C23.3386 20.2236 24.2043 18.1369 24.2043 15.961C24.2043 13.7852 23.3386 11.6985 21.7977 10.1599C20.2567 8.62135 18.1667 7.757 15.9875 7.757ZM15.9875 21.289C14.5718 21.289 13.214 20.7275 12.2129 19.728C11.2118 18.7285 10.6494 17.3728 10.6494 15.9593C10.6494 14.5457 11.2118 13.1901 12.2129 12.1905C13.214 11.191 14.5718 10.6295 15.9875 10.6295C17.4033 10.6295 18.761 11.191 19.7621 12.1905C20.7632 13.1901 21.3256 14.5457 21.3256 15.9593C21.3256 17.3728 20.7632 18.7285 19.7621 19.728C18.761 20.7275 17.4033 21.289 15.9875 21.289Z" fill="white"/>
</svg>
