<svg width="30" height="30" viewBox="0 0 30 30" fill="none" xmlns="http://www.w3.org/2000/svg">
<path d="M27 11.0595V21.75C27 22.7446 26.6049 23.6984 25.9016 24.4016C25.1984 25.1049 24.2446 25.5 23.25 25.5H6.75C5.75544 25.5 4.80161 25.1049 4.09835 24.4016C3.39509 23.6984 3 22.7446 3 21.75V11.0595L14.619 17.8965C14.7344 17.9646 14.866 18.0005 15 18.0005C15.134 18.0005 15.2656 17.9646 15.381 17.8965L27 11.0595ZM23.25 6C24.1727 5.99985 25.0631 6.33991 25.7508 6.95511C26.4385 7.57031 26.8753 8.41746 26.9775 9.3345L15 16.38L3.0225 9.3345C3.12474 8.41746 3.56149 7.57031 4.24919 6.95511C4.9369 6.33991 5.82728 5.99985 6.75 6H23.25Z" fill="#F8F8F8"/>
</svg>
