<svg width="32" height="32" viewBox="0 0 32 32" fill="none" xmlns="http://www.w3.org/2000/svg">
<path d="M29.856 7.968C28.4598 5.54836 26.4504 3.53954 24.0304 2.144C21.5776 0.7152 18.9008 0 16 0C13.0992 0 10.4224 0.7152 7.968 2.144C5.5152 3.5728 3.5728 5.5152 2.144 7.968C0.7152 10.4208 0 13.0992 0 16C0 18.9008 0.7136 21.5792 2.144 24.032C3.53972 26.452 5.54921 28.4609 7.9696 29.856C10.4224 31.2848 13.0992 32 16 32C18.9008 32 21.5776 31.2848 24.032 29.856C26.452 28.4605 28.4614 26.4516 29.8576 24.032C31.2864 21.5792 32 18.9008 32 16C32 13.0992 31.2864 10.4208 29.856 7.968ZM16 2.656C19.2 2.656 22.0352 3.68 24.512 5.7264C23.04 7.6048 20.8544 9.1504 17.952 10.3664C16.3488 7.4656 14.6112 5.0432 12.7344 3.1024C13.7981 2.80829 14.8964 2.65815 16 2.656ZM5.616 7.68C6.78598 6.19428 8.26634 4.98203 9.9536 4.128C11.8928 6.0496 13.6736 8.448 15.2976 11.328C12.0976 12.288 8.7152 12.768 5.152 12.768C4.2352 12.768 3.5424 12.7472 3.072 12.704C3.56236 10.871 4.42872 9.16009 5.616 7.68ZM2.656 16C2.656 15.9136 2.6608 15.808 2.672 15.68C2.6832 15.552 2.688 15.4464 2.688 15.36C3.0944 15.3824 3.7136 15.392 4.5456 15.392C8.8112 15.392 12.7792 14.8048 16.448 13.632C16.7472 14.2288 17.0576 14.9008 17.376 15.648C15.264 16.1168 13.0976 17.2576 10.8784 19.072C8.6592 20.8864 7.04 22.7952 6.016 24.8C3.776 22.2608 2.656 19.328 2.656 16ZM16 29.344C12.9696 29.344 10.2496 28.4048 7.8384 26.5296C8.8 24.6304 10.2768 22.8144 12.272 21.088C14.2656 19.36 16.2448 18.2832 18.208 17.856C19.4464 21.2784 20.284 24.8328 20.704 28.448C19.2046 29.0339 17.6098 29.3377 16 29.344ZM27.328 23.008C26.2807 24.6953 24.8705 26.1279 23.2 27.2016C22.816 23.8736 22.08 20.6304 20.9936 17.472C22.4848 17.3664 23.8176 17.312 24.9936 17.312C26.272 17.312 27.6912 17.3664 29.248 17.472C29.0391 19.4397 28.3823 21.3335 27.328 23.008ZM25.344 15.008C23.488 15.008 21.7712 15.0832 20.192 15.232C19.8575 14.3564 19.4946 13.492 19.104 12.64C22.4096 11.1904 24.7552 9.4304 26.1424 7.36C28.0624 9.6224 29.1088 12.2032 29.2784 15.104C27.9792 15.04 26.6672 15.008 25.344 15.008Z" fill="white"/>
</svg>
