<svg width="15" height="14" viewBox="0 0 15 14" fill="none" xmlns="http://www.w3.org/2000/svg">
<path d="M13.9476 4.41551L10.2594 0.829508C9.96998 0.548246 9.5775 0.390287 9.1683 0.390381C8.7591 0.390475 8.3667 0.548613 8.07741 0.830008C7.78813 1.1114 7.62567 1.493 7.62577 1.89086C7.62586 2.28872 7.78851 2.67025 8.07793 2.95151L10.5865 5.39051H1.54277C1.1336 5.39051 0.741191 5.54854 0.451866 5.82985C0.162541 6.11115 0 6.49268 0 6.89051C0 7.28833 0.162541 7.66986 0.451866 7.95117C0.741191 8.23247 1.1336 8.39051 1.54277 8.39051H10.5865L8.07793 10.8295C7.78851 11.1108 7.62586 11.4923 7.62577 11.8902C7.62567 12.288 7.78813 12.6696 8.07741 12.951C8.3667 13.2324 8.7591 13.3905 9.1683 13.3906C9.5775 13.3907 9.96998 13.2328 10.2594 12.9515L13.9476 9.36551C14.6216 8.70847 15 7.81842 15 6.89051C15 5.96259 14.6216 5.07254 13.9476 4.41551Z" fill="#222222"/>
</svg>
