<svg width="30" height="30" viewBox="0 0 30 30" fill="none" xmlns="http://www.w3.org/2000/svg">
<path d="M15 2.5C8.22375 2.5 2.5 8.22375 2.5 15C2.5 21.7763 8.22375 27.5 15 27.5C21.7763 27.5 27.5 21.7763 27.5 15C27.5 8.22375 21.7763 2.5 15 2.5ZM15 8.75C17.1587 8.75 18.75 10.34 18.75 12.5C18.75 14.66 17.1587 16.25 15 16.25C12.8425 16.25 11.25 14.66 11.25 12.5C11.25 10.34 12.8425 8.75 15 8.75ZM8.6175 20.965C9.73875 19.315 11.6088 18.215 13.75 18.215H16.25C18.3925 18.215 20.2613 19.315 21.3825 20.965C19.785 22.675 17.5188 23.75 15 23.75C12.4812 23.75 10.215 22.675 8.6175 20.965Z" fill="#F8F8F8"/>
</svg>
